<svg width="16" height="16" viewBox="0 0 16 16" fill="none" xmlns="http://www.w3.org/2000/svg">
<path d="M1.55553 10.5645C1.14095 11.1277 0.948021 11.8237 1.01349 12.52C1.07897 13.2163 1.39826 13.8641 1.91057 14.3402C2.42287 14.8163 3.09239 15.0873 3.7916 15.1016C4.4908 15.1159 5.17084 14.8725 5.70219 14.4178C4.71158 14.2473 3.792 13.7922 3.05566 13.1079C2.31933 12.4237 1.79808 11.5399 1.55553 10.5645Z" fill="black"/>
<path d="M3.41311 6.45776C2.68468 7.26355 2.291 8.31683 2.31235 9.40286C2.33369 10.4889 2.76845 11.5259 3.52799 12.3024C4.28753 13.079 5.31464 13.5366 6.39993 13.582C7.48522 13.6273 8.54696 13.2571 9.36867 12.5467C7.79177 12.4678 6.30264 11.7971 5.19864 10.6684C4.09464 9.53963 3.45702 8.03602 3.41311 6.45776Z" fill="black"/>
<path d="M9.67965 0.888916C10.7445 0.888919 11.7854 1.20451 12.6709 1.79582C13.5565 2.38712 14.2469 3.22762 14.655 4.21113C15.0631 5.19463 15.1705 6.27703 14.9638 7.32157C14.757 8.36612 14.2453 9.32595 13.4933 10.0798C12.7413 10.8337 11.7827 11.3478 10.7387 11.5571C9.69466 11.7665 8.612 11.6617 7.62749 11.256C6.64297 10.8504 5.80077 10.162 5.20728 9.27795C4.61378 8.39387 4.29562 7.35373 4.29299 6.28892C4.29123 5.58041 4.42927 4.87851 4.69919 4.22343C4.96911 3.56835 5.36561 2.97296 5.86598 2.47135C6.36635 1.96973 6.96077 1.57176 7.61518 1.30022C8.26959 1.02868 8.97114 0.888914 9.67965 0.888916Z" fill="black"/>
</svg>
