<svg width="16" height="8" viewBox="0 0 16 8" fill="none" xmlns="http://www.w3.org/2000/svg">
<g clip-path="url(#clip0_137_11)">
<path d="M14 0.5C14.2652 0.5 14.5196 0.552678 14.7071 0.646447C14.8946 0.740215 15 0.867392 15 1V7C15 7.13261 14.8946 7.25979 14.7071 7.35355C14.5196 7.44732 14.2652 7.5 14 7.5H2C1.73478 7.5 1.48043 7.44732 1.29289 7.35355C1.10536 7.25979 1 7.13261 1 7V1C1 0.867392 1.10536 0.740215 1.29289 0.646447C1.48043 0.552678 1.73478 0.5 2 0.5H14ZM2 0C1.46957 0 0.960859 0.105357 0.585786 0.292893C0.210714 0.48043 0 0.734784 0 1L0 7C0 7.26522 0.210714 7.51957 0.585786 7.70711C0.960859 7.89464 1.46957 8 2 8H14C14.5304 8 15.0391 7.89464 15.4142 7.70711C15.7893 7.51957 16 7.26522 16 7V1C16 0.734784 15.7893 0.48043 15.4142 0.292893C15.0391 0.105357 14.5304 0 14 0L2 0Z" fill="black"/>
</g>
<defs>
<clipPath id="clip0_137_11">
<rect width="16" height="8" fill="white"/>
</clipPath>
</defs>
</svg>
