<svg width="32" height="16" viewBox="0 0 32 16" fill="none" xmlns="http://www.w3.org/2000/svg">
<g clip-path="url(#clip0_137_11)">
<path d="M28 1C28.5304 1 29.0391 1.10536 29.4142 1.29289C29.7893 1.48043 30 1.73478 30 2V14C30 14.2652 29.7893 14.5196 29.4142 14.7071C29.0391 14.8946 28.5304 15 28 15H4C3.46957 15 2.96086 14.8946 2.58579 14.7071C2.21071 14.5196 2 14.2652 2 14V2C2 1.73478 2.21071 1.48043 2.58579 1.29289C2.96086 1.10536 3.46957 1 4 1H28ZM4 0C2.93913 0 1.92172 0.210714 1.17157 0.585786C0.421427 0.960859 0 1.46957 0 2L0 14C0 14.5304 0.421427 15.0391 1.17157 15.4142C1.92172 15.7893 2.93913 16 4 16H28C29.0609 16 30.0783 15.7893 30.8284 15.4142C31.5786 15.0391 32 14.5304 32 14V2C32 1.46957 31.5786 0.960859 30.8284 0.585786C30.0783 0.210714 29.0609 0 28 0L4 0Z" fill="black"/>
</g>
<defs>
<clipPath id="clip0_137_11">
<rect width="32" height="16" fill="white"/>
</clipPath>
</defs>
</svg>
